#Comment line ignore any data following # character 
#Hierarchical Translation and Rotation (.htr) file 
[Header]	
#Header keywords are followed by a single value 
FileType HTR		#Single word string
DataType HTRS		#Translation followed by rotation and scale data
FileVersion 1		#integer
NumSegments 64		#integer
NumFrames 3		#integer
DataFrameRate 30		#integer, data frame rate in this file
EulerRotationOrder ZYX
CalibrationUnits mm
RotationUnits Degrees
GlobalAxisofGravity Y
BoneLengthAxis Y
ScaleFactor 1.00
[SegmentNames&Hierarchy]
#CHILD	PARENT
Pinger_Root GLOBAL
Pelvis Pinger_Root
L_Hip Pelvis
R_Hip Pelvis
Rear_Leg01 Pelvis
Spine1 Pelvis
L_Leg01 L_Hip
L_Leg02 L_Leg01
L_Leg03 L_Leg02
L_Foot L_Leg03
L_Toe1_01 L_Foot
L_Toe2_01 L_Foot
L_Toe3_01 L_Foot
planeAlignerLeft L_Foot
L_Toe1_02 L_Toe1_01
L_Toe1_03 L_Toe1_02
L_Toe2_02 L_Toe2_01
L_Toe2_03 L_Toe2_02
L_Toe3_02 L_Toe3_01
L_Toe3_03 L_Toe3_02
planeLockWeightLeft planeAlignerLeft
R_Leg01 R_Hip
R_Leg02 R_Leg01
R_Leg03 R_Leg02
R_Foot R_Leg03
planeAlignerRight R_Foot
R_Toe1_01 R_Foot
R_Toe2_01 R_Foot
R_Toe3_01 R_Foot
planeLockWeightRight planeAlignerRight
R_Toe1_02 R_Toe1_01
R_Toe1_03 R_Toe1_02
R_Toe2_02 R_Toe2_01
R_Toe2_03 R_Toe2_02
R_Toe3_02 R_Toe3_01
R_Toe3_03 R_Toe3_02
Rear_Leg02 Rear_Leg01
Rear_Leg03 Rear_Leg02
Rear_Leg04 Rear_Leg03
Rear_Foot Rear_Leg04
planeAlignerCenter Rear_Foot
Rear_Toe1_01 Rear_Foot
Rear_Toe2_01 Rear_Foot
Rear_Toe3_01 Rear_Foot
planeLockWeightCenter planeAlignerCenter
Rear_Toe1_02 Rear_Toe1_01
Rear_Toe1_03 Rear_Toe1_02
Rear_Toe2_02 Rear_Toe2_01
Rear_Toe2_03 Rear_Toe2_02
Rear_Toe3_02 Rear_Toe3_01
Rear_Toe3_03 Rear_Toe3_02
Back_Bone Spine1
Head Spine1
Motor_Bone Back_Bone
Ping_Mechanism Back_Bone
BN_LookIK Head
bottomMouth Head
L_Mouth01 Head
L_mouthFront Head
mouthGun Head
R_Mouth01 Head
R_mouthFront Head
TopMouth Head
weapon_bone Head
[BasePosition]
#SegmentName Tx, Ty, Tz, Rx, Ry, Rz, BoneLength
Pinger_Root 0.000000 0.000000 0.000000 -90.000000 0.000000 0.000000 10.000000 
Pelvis 0.000000 0.000000 0.000000 0.000000 0.000000 0.000000 10.000000 
L_Hip 0.000000 0.000000 0.000000 0.000000 0.000000 0.000000 10.000000 
R_Hip 0.000000 0.000000 0.000000 0.000000 0.000000 0.000000 10.000000 
Rear_Leg01 0.000000 0.000000 0.000000 0.000000 0.000000 0.000000 10.000000 
Spine1 0.000000 0.000000 0.000000 0.000000 0.000000 0.000000 10.000000 
L_Leg01 0.000000 0.000000 0.000000 0.000000 0.000000 0.000000 10.000000 
L_Leg02 0.000000 0.000000 0.000000 0.000000 0.000000 0.000000 10.000000 
L_Leg03 0.000000 0.000000 0.000000 0.000000 0.000000 0.000000 10.000000 
L_Foot 0.000000 0.000000 0.000000 0.000000 0.000000 0.000000 10.000000 
L_Toe1_01 0.000000 0.000000 0.000000 0.000000 0.000000 0.000000 10.000000 
L_Toe2_01 0.000000 0.000000 0.000000 0.000000 0.000000 0.000000 10.000000 
L_Toe3_01 0.000000 0.000000 0.000000 0.000000 0.000000 0.000000 10.000000 
planeAlignerLeft 0.000000 0.000000 0.000000 0.000000 0.000000 0.000000 10.000000 
L_Toe1_02 0.000000 0.000000 0.000000 0.000000 0.000000 0.000000 10.000000 
L_Toe1_03 0.000000 0.000000 0.000000 0.000000 0.000000 0.000000 10.000000 
L_Toe2_02 0.000000 0.000000 0.000000 0.000000 0.000000 0.000000 10.000000 
L_Toe2_03 0.000000 0.000000 0.000000 0.000000 0.000000 0.000000 10.000000 
L_Toe3_02 0.000000 0.000000 0.000000 0.000000 0.000000 0.000000 10.000000 
L_Toe3_03 0.000000 0.000000 0.000000 0.000000 0.000000 0.000000 10.000000 
planeLockWeightLeft 0.000000 0.000000 0.000000 0.000000 0.000000 0.000000 10.000000 
R_Leg01 0.000000 0.000000 0.000000 0.000000 0.000000 0.000000 10.000000 
R_Leg02 0.000000 0.000000 0.000000 0.000000 0.000000 0.000000 10.000000 
R_Leg03 0.000000 0.000000 0.000000 0.000000 0.000000 0.000000 10.000000 
R_Foot 0.000000 0.000000 0.000000 0.000000 0.000000 0.000000 10.000000 
planeAlignerRight 0.000000 0.000000 0.000000 0.000000 0.000000 0.000000 10.000000 
R_Toe1_01 0.000000 0.000000 0.000000 0.000000 0.000000 0.000000 10.000000 
R_Toe2_01 0.000000 0.000000 0.000000 0.000000 0.000000 0.000000 10.000000 
R_Toe3_01 0.000000 0.000000 0.000000 0.000000 0.000000 0.000000 10.000000 
planeLockWeightRight 0.000000 0.000000 0.000000 0.000000 0.000000 0.000000 10.000000 
R_Toe1_02 0.000000 0.000000 0.000000 0.000000 0.000000 0.000000 10.000000 
R_Toe1_03 0.000000 0.000000 0.000000 0.000000 0.000000 0.000000 10.000000 
R_Toe2_02 0.000000 0.000000 0.000000 0.000000 0.000000 0.000000 10.000000 
R_Toe2_03 0.000000 0.000000 0.000000 0.000000 0.000000 0.000000 10.000000 
R_Toe3_02 0.000000 0.000000 0.000000 0.000000 0.000000 0.000000 10.000000 
R_Toe3_03 0.000000 0.000000 0.000000 0.000000 0.000000 0.000000 10.000000 
Rear_Leg02 0.000000 0.000000 0.000000 0.000000 0.000000 0.000000 10.000000 
Rear_Leg03 0.000000 0.000000 0.000000 0.000000 0.000000 0.000000 10.000000 
Rear_Leg04 0.000000 0.000000 0.000000 0.000000 0.000000 0.000000 10.000000 
Rear_Foot 0.000000 0.000000 0.000000 0.000000 0.000000 0.000000 10.000000 
planeAlignerCenter 0.000000 0.000000 0.000000 0.000000 0.000000 0.000000 10.000000 
Rear_Toe1_01 0.000000 0.000000 0.000000 0.000000 0.000000 0.000000 10.000000 
Rear_Toe2_01 0.000000 0.000000 0.000000 0.000000 0.000000 0.000000 10.000000 
Rear_Toe3_01 0.000000 0.000000 0.000000 0.000000 0.000000 0.000000 10.000000 
planeLockWeightCenter 0.000000 0.000000 0.000000 0.000000 0.000000 0.000000 10.000000 
Rear_Toe1_02 0.000000 0.000000 0.000000 0.000000 0.000000 0.000000 10.000000 
Rear_Toe1_03 0.000000 0.000000 0.000000 0.000000 0.000000 0.000000 10.000000 
Rear_Toe2_02 0.000000 0.000000 0.000000 0.000000 0.000000 0.000000 10.000000 
Rear_Toe2_03 0.000000 0.000000 0.000000 0.000000 0.000000 0.000000 10.000000 
Rear_Toe3_02 0.000000 0.000000 0.000000 0.000000 0.000000 0.000000 10.000000 
Rear_Toe3_03 0.000000 0.000000 0.000000 0.000000 0.000000 0.000000 10.000000 
Back_Bone 0.000000 0.000000 0.000000 0.000000 0.000000 0.000000 10.000000 
Head 0.000000 0.000000 0.000000 0.000000 0.000000 0.000000 10.000000 
Motor_Bone 0.000000 0.000000 0.000000 0.000000 0.000000 0.000000 10.000000 
Ping_Mechanism 0.000000 0.000000 0.000000 0.000000 0.000000 0.000000 10.000000 
BN_LookIK 0.000000 0.000000 0.000000 0.000000 0.000000 0.000000 10.000000 
bottomMouth 0.000000 0.000000 0.000000 0.000000 0.000000 0.000000 10.000000 
L_Mouth01 0.000000 0.000000 0.000000 0.000000 0.000000 0.000000 10.000000 
L_mouthFront 0.000000 0.000000 0.000000 0.000000 0.000000 0.000000 10.000000 
mouthGun 0.000000 0.000000 0.000000 0.000000 0.000000 0.000000 10.000000 
R_Mouth01 0.000000 0.000000 0.000000 0.000000 0.000000 0.000000 10.000000 
R_mouthFront 0.000000 0.000000 0.000000 0.000000 0.000000 0.000000 10.000000 
TopMouth 0.000000 0.000000 0.000000 0.000000 0.000000 0.000000 10.000000 
weapon_bone 0.000000 0.000000 0.000000 0.000000 0.000000 0.000000 10.000000 
#Beginning of Data. Separated by tabs
#Fr	Tx	Ty	Tz	Rx	Ry	Rz	SF
[Pinger_Root]
28 0.000000 0.000000 0.000000 -0.000075 -0.000000 -0.000020 0.000000
29 0.000000 0.000000 0.000000 -0.000075 -0.000000 -0.000020 0.000000
30 0.000000 0.000000 0.000000 -0.000075 -0.000000 -0.000020 0.000000
[Pelvis]
28 -258.455963 -735.441467 3486.370850 -144.797623 -72.878914 133.822281 3572.457764
29 -255.729889 -728.295532 3488.523682 -144.540909 -72.721985 133.677002 3572.899414
30 -251.105484 -720.139832 3476.507324 -144.730560 -72.622673 133.651978 3559.179443
[L_Hip]
28 5.766392 125.831482 872.656799 -154.058868 -57.156254 66.525391 881.701050
29 5.766392 125.831482 872.656799 -154.058868 -57.156254 66.525391 881.701050
30 5.766392 125.831482 872.656799 -154.058868 -57.156254 66.525391 881.701050
[R_Hip]
28 5.765438 125.836372 -872.654907 -2.520501 82.413048 74.352089 881.699829
29 5.765438 125.836372 -872.654907 -2.520501 82.413048 74.352089 881.699829
30 5.765438 125.836372 -872.654907 -2.520501 82.413048 74.352089 881.699829
[Rear_Leg01]
28 -192.298416 -925.602966 -0.001907 117.918053 -7.659321 -143.983734 945.367432
29 -192.298416 -925.602966 -0.001907 117.940979 -7.891426 -144.123093 945.367432
30 -192.298416 -925.602966 -0.001907 117.625229 -7.813747 -143.956512 945.367432
[Spine1]
28 290.604584 5.007505 0.000477 15.512357 6.315669 14.451441 290.647736
29 290.604584 5.007505 0.000477 15.409773 6.575515 14.093337 290.647736
30 290.604584 5.007505 0.000477 15.649487 6.825838 13.933458 290.647736
[L_Leg01]
28 761.932007 -0.002384 -0.069261 18.827541 -38.828587 -7.211811 761.932068
29 761.932007 -0.002384 -0.069261 18.641996 -38.906956 -6.819674 761.932068
30 761.932007 -0.002384 -0.069261 18.366880 -38.785099 -5.844318 761.932068
[L_Leg02]
28 1441.140503 -0.000954 -0.000715 -1.325936 0.469580 -105.231407 1441.140503
29 1441.140503 -0.000954 -0.000715 -1.316087 0.464648 -105.480209 1441.140503
30 1441.140503 -0.000954 -0.000715 -1.267356 0.448330 -106.656494 1441.140503
[L_Leg03]
28 1686.963989 -0.000715 -0.000954 0.029400 -0.010191 102.260788 1686.963989
29 1686.963989 -0.000715 -0.000954 0.029387 -0.010231 102.416252 1686.963989
30 1686.963989 -0.000715 -0.000954 0.029373 -0.010271 102.571701 1686.963989
[L_Foot]
28 3041.570068 -30.715107 11.297464 -1.216637 2.603140 22.448051 3041.746094
29 3041.570068 -30.715107 11.297464 -1.200382 2.605437 22.480312 3041.746094
30 3041.570068 -30.715107 11.297464 -1.445768 2.617639 22.697189 3041.746094
[L_Toe1_01]
28 -188.216690 -224.732346 -21.137953 94.280663 -28.131248 179.902283 293.899567
29 -188.216690 -224.732346 -21.137953 94.280670 -28.131250 179.902283 293.899567
30 -188.216690 -224.732346 -21.137953 94.280670 -28.131250 179.902283 293.899567
[L_Toe2_01]
28 200.746536 -219.926590 148.838394 -108.981293 -14.926967 -28.371239 332.896027
29 200.746536 -219.926590 148.838394 -108.981270 -14.926897 -28.371342 332.896027
30 200.746536 -219.926590 148.838394 -108.981277 -14.926826 -28.371439 332.896027
[L_Toe3_01]
28 188.832520 -219.859131 -191.078659 -119.528801 36.514473 -78.862701 347.140900
29 188.832520 -219.859131 -191.078659 -119.528816 36.514465 -78.862701 347.140900
30 188.832520 -219.859131 -191.078659 -119.528816 36.514465 -78.862701 347.140900
[planeAlignerLeft]
28 0.812531 -811.448792 -0.314951 0.000000 -90.000000 -90.001900 811.449280
29 0.812531 -811.448792 -0.314951 0.000000 -90.000000 -90.001900 811.449280
30 0.812531 -811.448792 -0.314951 0.000000 -90.000000 -90.001900 811.449280
[L_Toe1_02]
28 413.761139 0.000477 0.000000 0.001661 0.070897 0.001661 413.761139
29 413.761139 0.000477 0.000000 0.001661 0.070897 0.001661 413.761139
30 413.761139 0.000477 0.000000 0.001661 0.070897 0.001661 413.761139
[L_Toe1_03]
28 464.317322 0.000358 -0.000089 0.001673 -0.448396 -0.003292 464.317322
29 464.317322 0.000358 -0.000089 0.001673 -0.448396 -0.003292 464.317322
30 464.317322 0.000358 -0.000089 0.001673 -0.448396 -0.003292 464.317322
[L_Toe2_02]
28 342.235809 -0.000477 0.000238 0.004684 -81.233978 0.004684 342.235809
29 342.235809 -0.000477 0.000238 0.004684 -81.234268 0.004684 342.235809
30 342.235809 -0.000477 0.000238 0.004684 -81.234604 0.004684 342.235809
[L_Toe2_03]
28 420.210846 -0.000715 0.000000 179.993195 44.163803 -179.999222 420.210846
29 420.210846 -0.000715 0.000000 179.993195 44.163803 -179.999222 420.210846
30 420.210846 -0.000715 0.000000 179.993195 44.163803 -179.999222 420.210846
[L_Toe3_02]
28 329.270111 0.000954 0.000000 0.004675 -84.672585 0.004675 329.270111
29 329.270111 0.000954 0.000000 0.004675 -84.672043 0.004675 329.270111
30 329.270111 0.000954 0.000000 0.004675 -84.671410 0.004675 329.270111
[L_Toe3_03]
28 439.137451 -0.001907 0.000954 179.993454 37.691116 -179.998764 439.137451
29 439.137451 -0.001907 0.000954 179.993454 37.691116 -179.998764 439.137451
30 439.137451 -0.001907 0.000954 179.993454 37.691113 -179.998764 439.137451
[planeLockWeightLeft]
28 -0.000954 0.000238 -0.000305 -0.011826 -0.004376 0.005620 0.001029
29 -0.000954 0.000238 -0.000305 -0.011826 -0.004376 0.005620 0.001029
30 -0.000954 0.000238 -0.000305 -0.011826 -0.004376 0.005620 0.001029
[R_Leg01]
28 761.455627 -0.001907 -0.000358 104.060326 -57.836308 73.340782 761.455688
29 761.455627 -0.001907 -0.000358 103.365944 -55.436596 74.297218 761.455688
30 761.455627 -0.001907 -0.000358 102.291489 -53.076969 75.619247 761.455688
[R_Leg02]
28 1441.140625 0.000000 -0.000238 1.203546 -0.478886 -95.632446 1441.140625
29 1441.140625 0.000000 -0.000238 1.214614 -0.449547 -93.205231 1441.140625
30 1441.140625 0.000000 -0.000238 1.226914 -0.420701 -90.777977 1441.140625
[R_Leg03]
28 1686.963989 0.000954 0.001431 -0.049462 0.013223 96.288643 1686.963989
29 1686.963989 0.000954 0.001431 -0.045820 0.013554 97.586960 1686.963989
30 1686.963989 0.000954 0.001431 -0.042172 0.013803 98.885307 1686.963989
[R_Foot]
28 3041.560059 -30.531288 -11.204481 1.449779 -25.026442 30.930468 3041.734131
29 3041.560059 -30.531288 -11.204481 1.421647 -25.006714 29.765713 3041.734131
30 3041.560059 -30.531288 -11.204481 1.393079 -24.987503 28.600983 3041.734131
[planeAlignerRight]
28 -0.635147 -812.270569 -0.364304 0.000000 -89.960434 -90.005180 812.270874
29 -0.635147 -812.270569 -0.364304 0.000000 -89.960434 -90.005180 812.270874
30 -0.635147 -812.270569 -0.364304 0.000000 -89.960434 -90.005180 812.270874
[R_Toe1_01]
28 -188.383347 -224.864899 21.052242 77.501526 2.586502 -171.440872 294.101532
29 -188.383347 -224.864899 21.052242 77.501526 2.586503 -171.440872 294.101532
30 -188.383347 -224.864899 21.052242 77.501526 2.586503 -171.440872 294.101532
[R_Toe2_01]
28 200.637817 -220.002121 -148.787384 -87.002289 41.725262 -47.417881 332.857574
29 200.637817 -220.002121 -148.787384 -87.001923 41.727779 -47.416904 332.857574
30 200.637817 -220.002121 -148.787384 -87.001556 41.730297 -47.415932 332.857574
[R_Toe3_01]
28 188.606735 -220.092957 191.126343 -74.776886 -14.743340 -63.952141 347.192566
29 188.606735 -220.092957 191.126343 -74.776886 -14.743338 -63.952141 347.192566
30 188.606735 -220.092957 191.126343 -74.776886 -14.743338 -63.952141 347.192566
[planeLockWeightRight]
28 -0.000477 0.000000 0.000000 -0.011823 -0.004379 -0.000027 0.000477
29 -0.000477 0.000000 0.000000 -0.011823 -0.004379 -0.000027 0.000477
30 -0.000477 0.000000 0.000000 -0.011823 -0.004379 -0.000027 0.000477
[R_Toe1_02]
28 413.762085 0.000477 -0.000119 0.001417 -21.785860 0.001417 413.762085
29 413.762085 0.000477 -0.000119 0.001417 -21.786081 0.001417 413.762085
30 413.762085 0.000477 -0.000119 0.001417 -21.786301 0.001417 413.762085
[R_Toe1_03]
28 464.317810 0.000000 0.001088 0.000898 28.938187 -0.003161 464.317810
29 464.317810 0.000000 0.001088 0.000898 28.938408 -0.003161 464.317810
30 464.317810 0.000000 0.001088 0.000898 28.938637 -0.003161 464.317810
[R_Toe2_02]
28 342.234741 -0.000954 0.000238 -0.002334 -78.761276 -0.002334 342.234741
29 342.234741 -0.000954 0.000238 -0.002334 -78.761276 -0.002334 342.234741
30 342.234741 -0.000954 0.000238 -0.002334 -78.761276 -0.002334 342.234741
[R_Toe2_03]
28 420.210846 0.000715 -0.000268 -179.994690 71.311974 -179.998230 420.210846
29 420.210846 0.000715 -0.000268 -179.994690 71.312271 -179.998230 420.210846
30 420.210846 0.000715 -0.000268 -179.994690 71.312546 -179.998230 420.210846
[R_Toe3_02]
28 329.270355 -0.000477 -0.000954 0.001175 -84.054695 0.001175 329.270355
29 329.270355 -0.000477 -0.000954 0.001175 -84.058456 0.001175 329.270355
30 329.270355 -0.000477 -0.000954 0.001175 -84.062141 0.001175 329.270355
[R_Toe3_03]
28 439.137939 0.000238 0.001431 -179.995331 57.509525 -179.988052 439.137939
29 439.137939 0.000238 0.001431 -179.995331 57.509785 -179.988052 439.137939
30 439.137939 0.000238 0.001431 -179.995331 57.510036 -179.988052 439.137939
[Rear_Leg02]
28 1162.777710 -0.029802 0.005960 -37.779110 40.340984 -146.019180 1162.777710
29 1162.777710 -0.029802 0.005960 -37.464706 40.624260 -145.533112 1162.777710
30 1162.777710 -0.029802 0.005960 -37.509766 40.584572 -145.602966 1162.777710
[Rear_Leg03]
28 607.192505 -0.013351 -0.073195 0.010275 -0.005530 72.932243 607.192505
29 607.192505 -0.013351 -0.073195 0.010283 -0.005515 72.768166 607.192505
30 607.192505 -0.013351 -0.073195 0.010282 -0.005517 72.786591 607.192505
[Rear_Leg04]
28 995.874512 -0.020504 -0.011921 -0.041733 -0.015080 77.628334 995.874573
29 995.874512 -0.020504 -0.011921 -0.041676 -0.015235 77.200287 995.874573
30 995.874512 -0.020504 -0.011921 -0.041683 -0.015217 77.250916 995.874573
[Rear_Foot]
28 3096.176270 -0.067472 -0.041425 95.099464 43.207115 -70.119553 3096.176270
29 3096.176270 -0.067472 -0.041425 95.141983 43.158554 -70.157555 3096.176270
30 3096.176270 -0.067472 -0.041425 95.194382 43.213333 -69.927666 3096.176270
[planeAlignerCenter]
28 0.350077 0.966311 -838.790894 0.000009 0.000003 -179.999985 838.791565
29 0.350077 0.966311 -838.790894 0.000009 0.000003 -179.999985 838.791565
30 0.350077 0.966311 -838.790894 0.000009 0.000003 -179.999985 838.791565
[Rear_Toe1_01]
28 0.653352 83.966492 -371.173737 -30.742466 22.789413 86.615692 380.553192
29 0.653352 83.966492 -371.173737 -30.742771 22.789047 86.615234 380.553192
30 0.653352 83.966492 -371.173737 -30.743082 22.788687 86.614784 380.553192
[Rear_Toe2_01]
28 178.200760 -294.826019 -362.060547 -8.139009 -0.244952 -62.291584 499.765686
29 178.200760 -294.826019 -362.060547 -8.139122 -0.245230 -62.289333 499.765686
30 178.200760 -294.826019 -362.060547 -8.139235 -0.245509 -62.287071 499.765686
[Rear_Toe3_01]
28 -153.359680 -308.780914 -362.060852 3.735437 13.487112 -102.775467 499.952881
29 -153.359680 -308.780914 -362.060852 3.735460 13.487675 -102.772728 499.952881
30 -153.359680 -308.780914 -362.060852 3.735486 13.488237 -102.769989 499.952881
[planeLockWeightCenter]
28 -0.000062 0.000238 0.000000 -0.011814 -0.004373 -0.000015 0.000246
29 -0.000062 0.000238 0.000000 -0.011814 -0.004373 -0.000015 0.000246
30 -0.000062 0.000238 0.000000 -0.011814 -0.004373 -0.000015 0.000246
[Rear_Toe1_02]
28 379.707825 0.194073 0.000477 -0.006719 -30.019583 -0.006719 379.707855
29 379.707825 0.194073 0.000477 -0.006719 -30.019583 -0.006719 379.707855
30 379.707825 0.194073 0.000477 -0.006719 -30.019583 -0.006719 379.707855
[Rear_Toe1_03]
28 500.129700 0.165701 0.000119 -179.994812 70.609940 -179.998367 500.129761
29 500.129700 0.165701 0.000119 -179.994812 70.612587 -179.998367 500.129761
30 500.129700 0.165701 0.000119 -179.994812 70.615288 -179.998367 500.129761
[Rear_Toe2_02]
28 340.494507 0.000238 -0.000954 0.001661 0.062898 0.001661 340.494507
29 340.494507 0.000238 -0.000954 0.001661 0.062753 0.001661 340.494507
30 340.494507 0.000238 -0.000954 0.001661 0.062607 0.001661 340.494507
[Rear_Toe2_03]
28 433.103577 0.000000 0.000238 -0.003297 -0.804494 0.001683 433.103546
29 433.103577 0.000000 0.000238 -0.003297 -0.804494 0.001683 433.103546
30 433.103577 0.000000 0.000238 -0.003297 -0.804494 0.001683 433.103546
[Rear_Toe3_02]
28 340.494141 -0.000358 -0.000477 -0.002600 -36.654480 -0.002600 340.494171
29 340.494141 -0.000358 -0.000477 -0.002600 -36.654480 -0.002600 340.494171
30 340.494141 -0.000358 -0.000477 -0.002600 -36.654480 -0.002600 340.494171
[Rear_Toe3_03]
28 433.103577 0.001431 -0.000238 0.006396 30.714855 -0.001650 433.103546
29 433.103577 0.001431 -0.000238 0.006396 30.714855 -0.001650 433.103546
30 433.103577 0.001431 -0.000238 0.006396 30.714855 -0.001650 433.103546
[Back_Bone]
28 1312.175781 -701.934692 0.000954 9.567174 -18.851130 -90.677292 1488.125488
29 1312.175781 -701.934692 0.000954 9.109604 -18.951761 -89.854401 1488.125488
30 1312.175781 -701.934692 0.000954 8.650258 -19.046164 -89.030159 1488.125488
[Head]
28 1406.159424 809.709290 0.001431 -0.851402 -1.338011 42.761860 1622.625488
29 1406.159424 809.709290 0.001431 -0.853033 -1.338108 42.507042 1622.625488
30 1406.159424 809.709290 0.001431 -0.855635 -1.338775 41.939796 1622.625488
[Motor_Bone]
28 1158.364380 -417.834747 0.000477 -10.963647 -19.743500 -103.041115 1231.419434
29 1158.364380 -417.834747 0.000477 -11.251061 -20.772348 -104.456032 1231.419434
30 1158.364380 -417.834747 0.000477 -9.843947 -19.601292 -106.609901 1231.419434
[Ping_Mechanism]
28 1258.188965 -444.375397 -70.361778 0.000103 -0.000053 82.120995 1336.210938
29 1264.439331 -403.095795 -70.978539 0.000103 -0.000053 82.120995 1329.033813
30 1263.613037 -409.255920 -71.653587 0.000103 -0.000053 82.120995 1330.166260
[BN_LookIK]
28 193.241119 1380.371704 -0.002861 0.000000 89.965736 -31.038179 1393.832153
29 193.241119 1380.371704 -0.002861 0.000000 89.965736 -31.038179 1393.832153
30 193.241119 1380.371704 -0.002861 0.000000 89.965736 -31.038179 1393.832153
[bottomMouth]
28 -435.092926 615.759399 -0.000954 -0.000022 0.000016 73.527184 753.966492
29 -435.092926 615.759399 -0.000954 -0.000022 0.000016 73.527184 753.966492
30 -435.092926 615.759399 -0.000954 -0.000022 0.000016 73.527184 753.966492
[L_Mouth01]
28 554.440979 7.658243 838.222046 150.204178 23.759130 109.605339 1005.027161
29 554.440979 7.658243 838.222046 150.204178 23.759130 109.605339 1005.027161
30 554.440979 7.658243 838.222046 150.204178 23.759130 109.605339 1005.027161
[L_mouthFront]
28 551.629089 934.514771 339.150421 0.000081 2.804060 79.119301 1136.941284
29 551.629089 934.514771 339.150421 0.000081 2.804060 79.119301 1136.941284
30 551.629089 934.514771 339.150421 0.000081 2.804060 79.119301 1136.941284
[mouthGun]
28 55.332661 1627.420898 0.000000 0.000023 0.000009 -11.038128 1628.361328
29 55.332661 1627.420898 0.000000 0.000023 0.000009 -11.038128 1628.361328
30 55.332661 1627.420898 0.000000 0.000023 0.000009 -11.038128 1628.361328
[R_Mouth01]
28 554.442383 7.659197 -838.223938 29.795891 -23.759109 109.605331 1005.029541
29 554.442383 7.659197 -838.223938 29.795891 -23.759109 109.605331 1005.029541
30 554.442383 7.659197 -838.223938 29.795891 -23.759109 109.605331 1005.029541
[R_mouthFront]
28 551.629089 934.514282 -339.151367 0.000029 -2.803930 79.119133 1136.941162
29 551.629089 934.514282 -339.151367 0.000029 -2.803930 79.119133 1136.941162
30 551.629089 934.514282 -339.151367 0.000029 -2.803930 79.119133 1136.941162
[TopMouth]
28 461.269867 -56.106091 -0.008583 -0.000059 -0.000268 92.025169 464.669525
29 461.269867 -56.106091 -0.008583 -0.000059 -0.000268 92.025169 464.669525
30 461.269867 -56.106091 -0.008583 -0.000059 -0.000268 92.025169 464.669525
[weapon_bone]
28 -987.239868 1448.372803 0.001431 0.000000 89.965736 -31.038221 1752.833740
29 -987.239868 1448.372803 0.001431 0.000000 89.965736 -31.038221 1752.833740
30 -987.239868 1448.372803 0.001431 0.000000 89.965736 -31.038221 1752.833740
